<?xml version="1.0" encoding="UTF-8"?>
<svg version="1.1" xmlns="http://www.w3.org/2000/svg" width="500" height="500">
<path d="M0 0 C16.44223291 -0.58635006 28.93064319 3.84789269 41.23046875 14.640625 C42.62890625 16.15625 42.62890625 16.15625 42.62890625 18.15625 C43.28890625 18.15625 43.94890625 18.15625 44.62890625 18.15625 C44.62890625 18.81625 44.62890625 19.47625 44.62890625 20.15625 C45.28890625 20.15625 45.94890625 20.15625 46.62890625 20.15625 C50.62890625 24.62683824 50.62890625 24.62683824 50.62890625 27.15625 C51.28890625 27.15625 51.94890625 27.15625 52.62890625 27.15625 C63.4638379 42.44791463 67.58730592 60.64011312 65.62890625 79.15625 C62.3257815 97.04116911 51.86718638 112.22281408 41.56640625 126.78125 C41.04651123 127.51649902 40.52661621 128.25174805 39.9909668 129.00927734 C37.83691645 132.05162062 35.67799259 135.08862192 33.48828125 138.10546875 C32.9365625 138.88535156 32.38484375 139.66523438 31.81640625 140.46875 C31.35621094 141.10425781 30.89601563 141.73976563 30.421875 142.39453125 C29.36593509 144.74048642 29.84231519 145.73892823 30.62890625 148.15625 C31.57707608 149.89030204 31.57707608 149.89030204 32.78125 151.5546875 C33.22267334 152.19140381 33.66409668 152.82812012 34.11889648 153.48413086 C34.59657471 154.15968018 35.07425293 154.83522949 35.56640625 155.53125 C36.06148682 156.24095947 36.55656738 156.95066895 37.06665039 157.68188477 C41.0175764 163.33137504 45.02141858 168.94360054 49.04296875 174.54296875 C51.86733105 178.47992573 54.65329811 182.44358101 57.44140625 186.40625 C61.70068834 192.45057102 65.99218111 198.47071282 70.31640625 204.46875 C70.85789307 205.2222876 71.39937988 205.9758252 71.95727539 206.75219727 C74.38694522 210.11899906 76.83706836 213.45510274 79.4140625 216.7109375 C80.22746094 217.74476563 81.04085937 218.77859375 81.87890625 219.84375 C82.5853125 220.71386719 83.29171875 221.58398438 84.01953125 222.48046875 C86.06180436 225.87599565 86.56047183 228.19133058 86.62890625 232.15625 C85.67216858 234.81385463 84.72287162 236.96562887 83.37890625 239.40625 C83.02699219 240.07720703 82.67507813 240.74816406 82.3125 241.43945312 C77.68043265 250.15442521 72.65831713 258.66633739 67.62890625 267.15625 C64.42705615 265.79107688 62.78328081 264.41814802 60.78125 261.5859375 C60.2641748 260.8626123 59.74709961 260.13928711 59.21435547 259.39404297 C58.67053223 258.61432129 58.12670898 257.83459961 57.56640625 257.03125 C56.99422363 256.22445801 56.42204102 255.41766602 55.83251953 254.58642578 C54.08691998 252.1172416 52.35526205 249.63891882 50.62890625 247.15625 C50.13374512 246.4446875 49.63858398 245.733125 49.12841797 245 C45.45392589 239.70526947 41.82212024 234.38169678 38.19824219 229.05224609 C31.14747792 218.68699297 31.14747792 218.68699297 23.578125 208.69921875 C19.21080424 203.00157183 15.16079074 197.06152639 11.05371094 191.17480469 C10.09895919 189.82218519 9.13062969 188.47905433 8.14941406 187.14550781 C4.62890625 182.35652709 4.62890625 182.35652709 4.62890625 180.15625 C0.03673719 184.22359974 -2.58788445 188.72010928 -5.37109375 194.15625 C-6.03109375 194.15625 -6.69109375 194.15625 -7.37109375 194.15625 C-7.58636719 194.81496094 -7.80164063 195.47367188 -8.0234375 196.15234375 C-9.84534956 200.21335933 -12.33766069 203.61730464 -14.93359375 207.21875 C-15.47226074 207.97389893 -16.01092773 208.72904785 -16.56591797 209.50708008 C-20.35598254 214.80068318 -24.2374826 220.01794714 -28.1640625 225.2109375 C-34.20675564 233.27499171 -39.98789621 241.50986708 -45.55859375 249.90625 C-46.18121094 250.84283447 -46.18121094 250.84283447 -46.81640625 251.79833984 C-48.70140087 254.63558692 -50.58082989 257.47597933 -52.44921875 260.32421875 C-53.0628125 261.23816406 -53.67640625 262.15210938 -54.30859375 263.09375 C-54.83324219 263.88652344 -55.35789063 264.67929687 -55.8984375 265.49609375 C-56.38441406 266.04394531 -56.87039062 266.59179688 -57.37109375 267.15625 C-58.36109375 267.15625 -59.35109375 267.15625 -60.37109375 267.15625 C-60.92796875 266.16367187 -61.48484375 265.17109375 -62.05859375 264.1484375 C-62.82930791 262.77597474 -63.60015097 261.40358435 -64.37109375 260.03125 C-64.77537598 259.31146973 -65.1796582 258.59168945 -65.59619141 257.85009766 C-68.90920235 251.9595823 -72.26608485 246.09538065 -75.64453125 240.2421875 C-80.46868849 231.61982501 -80.46868849 231.61982501 -79.87109375 228.78125 C-79.37609375 227.915 -78.88109375 227.04875 -78.37109375 226.15625 C-77.97921875 225.46660156 -77.58734375 224.77695312 -77.18359375 224.06640625 C-74.73035301 219.91195988 -74.73035301 219.91195988 -73.37109375 218.15625 C-72.71109375 218.15625 -72.05109375 218.15625 -71.37109375 218.15625 C-70.984375 217.34414063 -70.984375 217.34414063 -70.58984375 216.515625 C-69.14643081 213.72132559 -67.53670841 211.07405654 -65.87109375 208.40625 C-65.26265625 207.42140625 -64.65421875 206.4365625 -64.02734375 205.421875 C-63.48078125 204.67421875 -62.93421875 203.9265625 -62.37109375 203.15625 C-61.71109375 203.15625 -61.05109375 203.15625 -60.37109375 203.15625 C-60.12101562 202.44210937 -59.8709375 201.72796875 -59.61328125 200.9921875 C-58.24705604 197.87306957 -56.55349257 195.49080542 -54.49609375 192.78125 C-51.18100791 188.33028623 -51.18100791 188.33028623 -48.30859375 183.59375 C-45.66862175 178.9099287 -42.77688763 174.32541147 -39.37109375 170.15625 C-38.71109375 170.15625 -38.05109375 170.15625 -37.37109375 170.15625 C-37.12488281 169.44855469 -36.87867188 168.74085938 -36.625 168.01171875 C-35.21010763 164.78964299 -33.42134065 162.27935522 -31.30859375 159.46875 C-28.61189331 155.95317983 -28.61189331 155.95317983 -26.37109375 152.15625 C-25.71109375 152.15625 -25.05109375 152.15625 -24.37109375 152.15625 C-22.4998267 148.30364136 -22.1152733 146.25233725 -23.37109375 142.15625 C-24.78903404 139.91332626 -26.21989085 137.83185596 -27.80859375 135.71875 C-28.71884735 134.47533168 -29.62900071 133.23183996 -30.5390625 131.98828125 C-31.00747559 131.35486816 -31.47588867 130.72145508 -31.95849609 130.06884766 C-46.61582161 110.22344702 -61.08958184 89.03625658 -58.37109375 63.15625 C-57.88325791 60.0087442 -57.28365104 56.89642041 -56.62109375 53.78125 C-56.46447266 53.04406738 -56.30785156 52.30688477 -56.14648438 51.54736328 C-55.07514502 46.99827577 -53.51166732 43.06260712 -51.30126953 38.94482422 C-50.20477849 36.91294754 -50.20477849 36.91294754 -48.99609375 33.65625 C-47.02050215 29.40112964 -44.5798309 25.5973748 -41.37109375 22.15625 C-40.71109375 22.15625 -40.05109375 22.15625 -39.37109375 22.15625 C-39.14035156 21.5890625 -38.90960938 21.021875 -38.671875 20.4375 C-37.03773381 17.57161876 -35.03799491 15.82711998 -32.55859375 13.65625 C-31.70652344 12.9034375 -30.85445312 12.150625 -29.9765625 11.375 C-29.11675781 10.6428125 -28.25695312 9.910625 -27.37109375 9.15625 C-26.55898437 8.44855469 -25.746875 7.74085937 -24.91015625 7.01171875 C-17.78585085 1.80549557 -8.58511475 0.56574068 0 0 Z M-13.24609375 37.40625 C-14.04265381 37.51549805 -14.83921387 37.62474609 -15.65991211 37.73730469 C-21.02275123 38.59427929 -24.80518803 40.20971884 -29.37109375 43.15625 C-29.37109375 43.81625 -29.37109375 44.47625 -29.37109375 45.15625 C-30.03109375 45.15625 -30.69109375 45.15625 -31.37109375 45.15625 C-33.53063679 48.39556456 -33.5888646 49.40319451 -32.890625 53.1015625 C-29.57789052 66.20305375 -21.24318836 77.93986715 -12.6640625 88.1640625 C-7.07110779 95.46253491 -2.30182421 103.4011863 2.62890625 111.15625 C7.96368345 106.39566604 11.68680811 100.53651234 15.69140625 94.65625 C17.09735965 92.60307102 18.50486078 90.55095085 19.9140625 88.5 C20.531604 87.59443359 21.14914551 86.68886719 21.78540039 85.75585938 C23.62890625 83.15625 23.62890625 83.15625 25.86108398 80.44726562 C27.83254115 78.37464487 27.83254115 78.37464487 27.62890625 76.15625 C28.28890625 76.15625 28.94890625 76.15625 29.62890625 76.15625 C34.9517354 68.87996878 39.29220784 60.12778435 40.62890625 51.15625 C39.22565223 46.16210494 36.2777229 42.67931957 31.75390625 40.078125 C18.30996513 34.24582701 0.84996377 35.34334594 -13.24609375 37.40625 Z " fill="#FE5385" transform="translate(246.37109375,115.84375)"/>
<path d="M0 0 C0.99 0 1.98 0 3 0 C3 0.66 3 1.32 3 2 C3.66 2 4.32 2 5 2 C5.99 5.465 5.99 5.465 7 9 C6.67 9 6.34 9 6 9 C5.773125 9.804375 5.54625 10.60875 5.3125 11.4375 C3.66368412 15.91285739 1.39455588 19.88721318 -1 24 C-1.66 24 -2.32 24 -3 24 C-3.32291016 24.98806641 -3.32291016 24.98806641 -3.65234375 25.99609375 C-5.47425581 30.05710933 -7.96656694 33.46105464 -10.5625 37.0625 C-11.37050049 38.19522339 -11.37050049 38.19522339 -12.19482422 39.35083008 C-15.98488879 44.64443318 -19.86638885 49.86169714 -23.79296875 55.0546875 C-29.83566189 63.11874171 -35.61680246 71.35361708 -41.1875 79.75 C-41.81011719 80.68658447 -41.81011719 80.68658447 -42.4453125 81.64208984 C-44.33030712 84.47933692 -46.20973614 87.31972933 -48.078125 90.16796875 C-48.69171875 91.08191406 -49.3053125 91.99585938 -49.9375 92.9375 C-50.72447266 94.12666016 -50.72447266 94.12666016 -51.52734375 95.33984375 C-52.01332031 95.88769531 -52.49929687 96.43554688 -53 97 C-53.99 97 -54.98 97 -56 97 C-56.556875 96.00742187 -57.11375 95.01484375 -57.6875 93.9921875 C-58.05294922 93.3417749 -58.41839844 92.6913623 -58.79492188 92.02124023 C-59.60483669 90.57878458 -60.41340997 89.13557493 -61.22070312 87.69165039 C-63.22037084 84.1237769 -65.23976634 80.57394023 -67.34375 77.06640625 C-67.70726562 76.45361816 -68.07078125 75.84083008 -68.4453125 75.20947266 C-69.44525775 73.52947204 -70.45668107 71.85631879 -71.46875 70.18359375 C-73.18426863 66.61689047 -73.96299938 63.96369172 -74 60 C-71.22647731 55.99873126 -66.4782381 53.46606089 -62.4375 50.8125 C-61.76525391 50.36197266 -61.09300781 49.91144531 -60.40039062 49.44726562 C-57.57099199 47.57317537 -55.24380166 46.08126722 -52 45 C-52 44.34 -52 43.68 -52 43 C-50.3203125 41.7109375 -50.3203125 41.7109375 -48.125 40.375 C-47.04605469 39.70597656 -47.04605469 39.70597656 -45.9453125 39.0234375 C-44 38 -44 38 -42 38 C-41.731875 37.360625 -41.46375 36.72125 -41.1875 36.0625 C-40 34 -40 34 -37 33 C-36.4225 32.4225 -35.845 31.845 -35.25 31.25 C-32.4466163 28.4466163 -29.4026151 26.04492139 -26 24 C-25.34 24 -24.68 24 -24 24 C-23.75894531 23.41089844 -23.51789063 22.82179688 -23.26953125 22.21484375 C-21.7561915 19.57464794 -20.14051788 18.34763738 -17.6875 16.5625 C-14.16336804 13.91658623 -11.04002017 11.20434559 -8 8 C-6.04093465 5.94298138 -4.05594322 3.96456796 -2 2 C-1.34 2 -0.68 2 0 2 C0 1.34 0 0.68 0 0 Z " fill="#FD3E81" transform="translate(242,286)"/>
<path d="M0 0 C1.49853516 -0.04350586 1.49853516 -0.04350586 3.02734375 -0.08789062 C9.02579235 -0.13885784 13.44157217 0.54834012 18.78540039 3.33251953 C20.81167415 4.34326426 22.75135742 4.92963108 24.9375 5.5 C30.22505411 7.53528868 32.46569107 11.28702035 34.75 16.3125 C38.04829358 25.24075213 41.55621411 35.7300588 39.75 45.3125 C38.76 46.3025 38.76 46.3025 37.75 47.3125 C36.37437146 46.02284824 35.04233607 44.68560707 33.75 43.3125 C33.75 42.6525 33.75 41.9925 33.75 41.3125 C25.13938475 37.68945424 16.06394667 35.77539193 6.75 35.3125 C5.8115625 35.25964844 4.873125 35.20679688 3.90625 35.15234375 C-2.85090257 34.95611331 -9.33662219 35.60276618 -16 36.625 C-16.77980225 36.74262695 -17.55960449 36.86025391 -18.36303711 36.98144531 C-28.09818718 38.42379625 -28.09818718 38.42379625 -36.25 43.3125 C-38.92782842 37.95684316 -37.81672693 30.45971107 -36.34375 24.87890625 C-33.11215681 16.085244 -29.78878633 7.80456645 -21.1875 3.3125 C-14.23502604 0.1492891 -7.51982343 0.07166287 0 0 Z " fill="#F32670" transform="translate(249.25,117.6875)"/>
<path d="M0 0 C0.66 0 1.32 0 2 0 C1.6953187 3.65617562 1.29710802 4.7463712 -1.5625 7.1875 C-2.7690625 8.0846875 -2.7690625 8.0846875 -4 9 C-4 9.66 -4 10.32 -4 11 C-2.68 10.67 -1.36 10.34 0 10 C-1.70745698 18.17399618 -1.70745698 18.17399618 -3.0625 22 C-5.50670051 29.82144164 -5.18259865 38.25837085 -5.1875 46.375 C-5.19974609 47.43460938 -5.21199219 48.49421875 -5.22460938 49.5859375 C-5.24414585 60.21377967 -3.44971117 69.43910568 0.29296875 79.37109375 C1.02692155 82.10010055 0.96912 83.38893146 0 86 C-0.66 86 -1.32 86 -2 86 C-2.33 87.32 -2.66 88.64 -3 90 C-14.29626231 72.89423136 -19.81214142 54.37174853 -15.75585938 34.00341797 C-15.58892578 33.21854004 -15.42199219 32.43366211 -15.25 31.625 C-15.09337891 30.88781738 -14.93675781 30.15063477 -14.77539062 29.39111328 C-13.70405127 24.84202577 -12.14057357 20.90635712 -9.93017578 16.78857422 C-8.83368474 14.75669754 -8.83368474 14.75669754 -7.625 11.5 C-5.6494084 7.24487964 -3.20873715 3.4411248 0 0 Z " fill="#FF689E" transform="translate(205,138)"/>
<path d="M0 0 C0.95514676 3.07250006 1.00170571 3.99408687 0.0625 7.25 C-4.00575532 22.21337745 -0.04543937 37.86247511 6.890625 51.22265625 C8 54 8 54 7.796875 56.30859375 C7 58 7 58 5 59 C4.5978125 57.5459375 4.5978125 57.5459375 4.1875 56.0625 C3.795625 55.051875 3.40375 54.04125 3 53 C2.01 52.67 1.02 52.34 0 52 C-1.3515625 49.234375 -1.3515625 49.234375 -2.625 45.75 C-3.05039063 44.61046875 -3.47578125 43.4709375 -3.9140625 42.296875 C-5.83019233 36.47955997 -6.15572812 31.32392512 -6.125 25.25 C-6.12886719 24.47011719 -6.13273438 23.69023437 -6.13671875 22.88671875 C-6.12670133 17.12670133 -6.12670133 17.12670133 -5 16 C-4.86801094 14.25187827 -4.76944031 12.50118145 -4.6875 10.75 C-4.31701842 6.00166109 -3.59403533 3.36216209 0 0 Z " fill="#F85D8A" transform="translate(195,164)"/>
<path d="M0 0 C1.9765625 1.734375 1.9765625 1.734375 3.375 3.25 C3.375 3.91 3.375 4.57 3.375 5.25 C4.035 5.25 4.695 5.25 5.375 5.25 C5.375 5.91 5.375 6.57 5.375 7.25 C6.035 7.25 6.695 7.25 7.375 7.25 C9 9.75 9 9.75 10.375 12.25 C9.42625 12.188125 8.4775 12.12625 7.5 12.0625 C5.953125 12.1553125 5.953125 12.1553125 4.375 12.25 C3.715 13.24 3.055 14.23 2.375 15.25 C0.11967665 12.65637814 -1.22656428 10.00626435 -2.5625 6.875 C-5.23002354 -0.04305473 -5.23002354 -0.04305473 -10.6328125 -4.67578125 C-12.11255181 -5.16484763 -13.60640978 -5.61403454 -15.11328125 -6.01171875 C-17.625 -6.75 -17.625 -6.75 -20.515625 -8.3203125 C-26.30809174 -10.86374691 -32.87451986 -10.05932293 -39.0625 -9.9375 C-40.36638672 -9.92396484 -41.67027344 -9.91042969 -43.01367188 -9.89648438 C-46.21787622 -9.86127334 -49.42122105 -9.81202094 -52.625 -9.75 C-37.42823894 -19.88117404 -12.30261362 -10.28789989 0 0 Z " fill="#FA97B9" transform="translate(285.625,128.75)"/>
<path d="M0 0 C0.66 0 1.32 0 2 0 C1.6953187 3.65617562 1.29710802 4.7463712 -1.5625 7.1875 C-2.7690625 8.0846875 -2.7690625 8.0846875 -4 9 C-4 9.66 -4 10.32 -4 11 C-2.68 10.67 -1.36 10.34 0 10 C-0.66 12.97 -1.32 15.94 -2 19 C-2.99 19 -3.98 19 -5 19 C-5.17015625 19.55429688 -5.3403125 20.10859375 -5.515625 20.6796875 C-7.52765162 26.69436281 -7.52765162 26.69436281 -10.125 28.375 C-11.053125 28.684375 -11.053125 28.684375 -12 29 C-13.64685461 32.29370921 -13.45394166 35.93002032 -13.71875 39.56640625 C-14 42 -14 42 -15 43 C-15.23427778 45.01594582 -15.41336124 47.038474 -15.5625 49.0625 C-15.68818359 50.71958984 -15.68818359 50.71958984 -15.81640625 52.41015625 C-15.87699219 53.26480469 -15.93757812 54.11945313 -16 55 C-16.33 55 -16.66 55 -17 55 C-17.46882886 46.89967914 -16.98517117 39.52546154 -15.25 31.625 C-15.09305664 30.88910645 -14.93611328 30.15321289 -14.77441406 29.39501953 C-13.70649492 24.84355224 -12.14117376 20.90747522 -9.93017578 16.78857422 C-8.83368474 14.75669754 -8.83368474 14.75669754 -7.625 11.5 C-5.6494084 7.24487964 -3.20873715 3.4411248 0 0 Z " fill="#FB7BA3" transform="translate(205,138)"/>
<path d="M0 0 C4.02152847 1.34050949 4.70273254 3.51929173 7 7 C8.31558703 8.02323436 9.64377755 9.03126968 11 10 C11 10.66 11 11.32 11 12 C11.66 12 12.32 12 13 12 C13.061875 12.928125 13.061875 12.928125 13.125 13.875 C13.41375 14.57625 13.7025 15.2775 14 16 C16.91666667 17.25 16.91666667 17.25 20 18 C20.66 18.33 21.32 18.66 22 19 C21.75 21.375 21.75 21.375 21 24 C19.0625 25.375 19.0625 25.375 17 26 C14.39821038 24.69910519 14.00843531 23.38122436 12.6875 20.8125 C10.48225433 16.71333745 8.04087454 13.50870139 5 10 C0.59782609 3.88586957 0.59782609 3.88586957 0 0 Z " fill="#FD3A79" transform="translate(255,234)"/>
<path d="M0 0 C1.32 0 2.64 0 4 0 C6.06655129 3.09982693 7.20252638 5.9525175 8.5 9.4375 C10.16090797 13.93256165 10.16090797 13.93256165 12.171875 18.2734375 C13 20 13 20 12.75 22.1875 C12 24 12 24 10 25 C9.5978125 23.5459375 9.5978125 23.5459375 9.1875 22.0625 C8.795625 21.051875 8.40375 20.04125 8 19 C7.01 18.67 6.02 18.34 5 18 C3.61328125 15.234375 3.61328125 15.234375 2.3125 11.75 C1.87550781 10.61046875 1.43851563 9.4709375 0.98828125 8.296875 C0.08835157 5.29473805 -0.21552171 3.09885269 0 0 Z " fill="#FA6F98" transform="translate(190,198)"/>
<path d="M0 0 C-0.65226562 0.24492188 -1.30453125 0.48984375 -1.9765625 0.7421875 C-10.46596175 4.37334647 -13.7208681 9.45616564 -17.15625 17.8125 C-17.4346875 18.534375 -17.713125 19.25625 -18 20 C-18.99 19.67 -19.98 19.34 -21 19 C-21.6875 16.9375 -21.6875 16.9375 -22 15 C-23.32 15.99 -24.64 16.98 -26 18 C-24.47229036 14.24473608 -22.21377694 12.14969375 -19.1875 9.5 C-18.33542969 8.7471875 -17.48335937 7.994375 -16.60546875 7.21875 C-6.0431101 -1.77588225 -6.0431101 -1.77588225 0 0 Z " fill="#FE9DBF" transform="translate(233,120)"/>
<path d="M0 0 C0.83664534 2.3488428 1.20305947 3.51912285 0.21484375 5.859375 C-0.20667969 6.48328125 -0.62820313 7.1071875 -1.0625 7.75 C-1.76052734 8.79027344 -1.76052734 8.79027344 -2.47265625 9.8515625 C-4.91633308 13.28895958 -7.40391304 16.67590982 -10 20 C-10.44601562 20.58265625 -10.89203125 21.1653125 -11.3515625 21.765625 C-13.6253441 24.63923855 -15.52253186 26.71204884 -19 28 C-17.42281227 23.16638349 -14.65644748 19.56321293 -11.625 15.5625 C-10.65760527 14.27307146 -9.69144145 12.98271843 -8.7265625 11.69140625 C-8.26282227 11.07410645 -7.79908203 10.45680664 -7.32128906 9.82080078 C-6.0676997 8.09329349 -4.91521067 6.32994857 -3.7734375 4.52734375 C-2.89558594 3.27630859 -2.89558594 3.27630859 -2 2 C-1.34 2 -0.68 2 0 2 C0 1.34 0 0.68 0 0 Z " fill="#F65984" transform="translate(276,190)"/>
<path d="M0 0 C0 0.99 0 1.98 0 3 C0.103125 3.825 0.20625 4.65 0.3125 5.5 C0.209375 6.325 0.10625 7.15 0 8 C-2.375 9.6875 -2.375 9.6875 -5 11 C-7.10868102 12.82104403 -7.10868102 12.82104403 -7.75 15.125 C-9.51653277 19.18802538 -12.0020059 22.73500897 -15 26 C-15.99 26.33 -16.98 26.66 -18 27 C-16.65239353 22.0808682 -14.57047898 18.75297154 -11.4375 14.75 C-8.451514 11.04434278 -8.451514 11.04434278 -6 7 C-5.34 7 -4.68 7 -4 7 C-3.71125 6.21625 -3.4225 5.4325 -3.125 4.625 C-2 2 -2 2 0 0 Z " fill="#F999B6" transform="translate(213,279)"/>
<path d="M0 0 C1 3 1 3 0.35083008 4.74584961 C-0.00599854 5.37499268 -0.36282715 6.00413574 -0.73046875 6.65234375 C-1.12169922 7.34650391 -1.51292969 8.04066406 -1.91601562 8.75585938 C-2.54540039 9.83577148 -2.54540039 9.83577148 -3.1875 10.9375 C-3.58775391 11.65357422 -3.98800781 12.36964844 -4.40039062 13.10742188 C-6.57215246 16.90536518 -8.67884761 20.07585893 -12 23 C-12.33 21.02 -12.66 19.04 -13 17 C-12.01 17 -11.02 17 -10 17 C-9.7834375 15.576875 -9.7834375 15.576875 -9.5625 14.125 C-9 11 -9 11 -8 9 C-7.34 9 -6.68 9 -6 9 C-5.67 8.34 -5.34 7.68 -5 7 C-4.34 7.33 -3.68 7.66 -3 8 C-3 6.02 -3 4.04 -3 2 C-2.01 2 -1.02 2 0 2 C0 1.34 0 0.68 0 0 Z " fill="#F86C9A" transform="translate(305,211)"/>
<path d="M0 0 C0.625 1.8125 0.625 1.8125 1 4 C0.01 5.485 0.01 5.485 -1 7 C0.65 6.67 2.3 6.34 4 6 C1.31939836 8.20755429 -1.23411121 10.13506416 -4.25 11.875 C-7.29329146 13.78368398 -7.29329146 13.78368398 -7.875 17.25 C-7.91625 18.1575 -7.9575 19.065 -8 20 C-8.99 19.01 -9.98 18.02 -11 17 C-9.39516194 12.33138019 -7.02509806 7.90741833 -4 4 C-3.34 4 -2.68 4 -2 4 C-1.34 2.68 -0.68 1.36 0 0 Z " fill="#F979A2" transform="translate(177,330)"/>
<path d="M0 0 C0.99 0 1.98 0 3 0 C3 0.66 3 1.32 3 2 C2.01 2 1.02 2 0 2 C0.66 2.66 1.32 3.32 2 4 C2.66 3.67 3.32 3.34 4 3 C2.65070536 6.83663072 0.92248975 9.65172569 -1.625 12.8125 C-2.25664062 13.60269531 -2.88828125 14.39289063 -3.5390625 15.20703125 C-4.26222656 16.09455078 -4.26222656 16.09455078 -5 17 C-6.22500193 14.54999615 -6.7623723 12.74459991 -7 10 C-5.671875 7.32421875 -5.671875 7.32421875 -3.75 4.6875 C-2.81414062 3.36298828 -2.81414062 3.36298828 -1.859375 2.01171875 C-1.24578125 1.34785156 -0.6321875 0.68398437 0 0 Z " fill="#FD3C7C" transform="translate(284,238)"/>
<path d="M0 0 C0.33 0 0.66 0 1 0 C4.03009094 12.44061729 2.27125653 25.1396359 -2 37 C-2.33 37 -2.66 37 -3 37 C-3.30724504 32.49373939 -2.78445867 29.02330182 -1.5 24.6875 C0.70988765 16.54307836 0.2508637 8.36212324 0 0 Z " fill="#F8ACC4" transform="translate(310,172)"/>
<path d="M0 0 C0.33 0 0.66 0 1 0 C1.05391993 1.79133978 1.09275571 3.58313899 1.125 5.375 C1.14820313 6.37273437 1.17140625 7.37046875 1.1953125 8.3984375 C1 11 1 11 -1 13 C-2.32 11.68 -3.64 10.36 -5 9 C-4.67 8.01 -4.34 7.02 -4 6 C-4.38932856 3.85744207 -4.38932856 3.85744207 -5 2 C-3.68 2 -2.36 2 -1 2 C-0.67 1.34 -0.34 0.68 0 0 Z " fill="#F33D7C" transform="translate(288,152)"/>
<path d="M0 0 C1.26553711 0.00616333 1.26553711 0.00616333 2.55664062 0.01245117 C19.76790734 0.16600526 19.76790734 0.16600526 22.65625 2.66796875 C23.0584375 3.14878906 23.460625 3.62960938 23.875 4.125 C22.89144531 3.980625 21.90789062 3.83625 20.89453125 3.6875 C9.18244296 2.08357432 -2.31684335 1.91723185 -14.125 2.125 C-14.125 1.795 -14.125 1.465 -14.125 1.125 C-9.41276465 -0.07690618 -4.82742431 -0.02796721 0 0 Z " fill="#FBC6E0" transform="translate(249.125,150.875)"/>
<path d="M0 0 C-0.99 0.33 -1.98 0.66 -3 1 C-3 1.66 -3 2.32 -3 3 C-3.66 3 -4.32 3 -5 3 C-6.08360869 9.06820868 -5.79074734 13.10106757 -4 19 C-4.66 19 -5.32 19 -6 19 C-8.70884916 13.2211218 -9.74615622 7.20855545 -8 1 C-2.25 -1.125 -2.25 -1.125 0 0 Z " fill="#F085A7" transform="translate(220,158)"/>
<path d="M0 0 C2.98093122 2.5550839 4.52359755 5.38281401 6 9 C5.8125 11.3125 5.8125 11.3125 5 13 C4.01 13.495 4.01 13.495 3 14 C0.55987961 9.65022018 -0.60918594 5.98287932 -1 1 C-0.67 0.67 -0.34 0.34 0 0 Z " fill="#FC5284" transform="translate(197,209)"/>
<path d="M0 0 C0.33 0 0.66 0 1 0 C1.33 5.28 1.66 10.56 2 16 C0.68 15.34 -0.64 14.68 -2 14 C-2.3690205 4.58997722 -2.3690205 4.58997722 0 0 Z " fill="#FC5285" transform="translate(192,184)"/>
<path d="M0 0 C1 2 1 2 1.33984375 3.8046875 C2.21338239 6.70959116 3.76440818 8.69121915 5.5625 11.125 C9 15.78672032 9 15.78672032 9 18 C8.01 18 7.02 18 6 18 C3.45605013 14.70782958 1.99573232 11.98292927 1 8 C0.01 7.34 -0.98 6.68 -2 6 C-1.125 1.125 -1.125 1.125 0 0 Z " fill="#FCC1D8" transform="translate(275,258)"/>
<path d="M0 0 C0 0.99 0 1.98 0 3 C0.103125 3.825 0.20625 4.65 0.3125 5.5 C0.1578125 6.7375 0.1578125 6.7375 0 8 C-2.1875 9.5625 -2.1875 9.5625 -5 11 C-6.68477344 12.31037934 -8.35648543 13.63823078 -10 15 C-8.87548273 12.0280615 -7.77706209 9.66559313 -6 7 C-5.34 7 -4.68 7 -4 7 C-3.71125 6.21625 -3.4225 5.4325 -3.125 4.625 C-2 2 -2 2 0 0 Z " fill="#FBA6BF" transform="translate(213,279)"/>
<path d="M0 0 C0.8125 1.6875 0.8125 1.6875 1 4 C-1 6.1875 -1 6.1875 -2.38671875 7.4296875 C-5.64684261 10.60297998 -8.26145103 14.37753897 -11 18 C-11 13.88617958 -8.91176781 11.54974952 -6.625 8.3125 C-6.2125 7.70599609 -5.8 7.09949219 -5.375 6.47460938 C-4.30629935 4.94223053 -3.15838741 3.46575735 -2 2 C-1.34 2 -0.68 2 0 2 C0 1.34 0 0.68 0 0 Z " fill="#FAB4C9" transform="translate(276,190)"/>
<path d="M0 0 C6.90703976 -0.61669998 10.47759424 0.88757018 16 5 C14 6 14 6 12.01171875 5.51171875 C11.24472656 5.23972656 10.47773438 4.96773438 9.6875 4.6875 C8.88828125 4.40648438 8.0890625 4.12546875 7.265625 3.8359375 C4.82425219 2.93515512 2.39993453 2.00642416 0 1 C0 0.67 0 0.34 0 0 Z " fill="#ED87AE" transform="translate(263,119)"/>
<path d="M0 0 C0.66 0 1.32 0 2 0 C1.71241619 3.45100574 1.35802248 4.69035894 -1.3125 7 C-2.199375 7.66 -3.08625 8.32 -4 9 C-5.37368345 10.63356951 -6.71937515 12.2925002 -8 14 C-7.36651054 10.28584259 -5.71342582 7.80869701 -3.5625 4.75 C-2.94503906 3.85796875 -2.32757813 2.9659375 -1.69140625 2.046875 C-0.85416016 1.03367188 -0.85416016 1.03367188 0 0 Z " fill="#F9A7C1" transform="translate(205,138)"/>
<path d="M0 0 C0.103125 0.639375 0.20625 1.27875 0.3125 1.9375 C0.539375 2.618125 0.76625 3.29875 1 4 C1.99 4.33 2.98 4.66 4 5 C3.34 6.32 2.68 7.64 2 9 C-1 5.25 -1 5.25 -1 3 C-2.32 3.99 -3.64 4.98 -5 6 C-5 4.35 -5 2.7 -5 1 C-2 0 -2 0 0 0 Z " fill="#F796B6" transform="translate(252,293)"/>
<path d="M0 0 C0.33 0.99 0.66 1.98 1 3 C0.54625 3.391875 0.0925 3.78375 -0.375 4.1875 C-2.16418199 5.95758994 -2.16418199 5.95758994 -2.9375 8.5625 C-4 11 -4 11 -6.125 12.3125 C-7.053125 12.6528125 -7.053125 12.6528125 -8 13 C-6.40956621 7.91061189 -3.2553049 4.12543357 0 0 Z " fill="#F697B2" transform="translate(194,306)"/>
<path d="M0 0 C0.99 0.66 1.98 1.32 3 2 C2.67 2.66 2.34 3.32 2 4 C1.77377919 5.70363822 1.59111527 7.41328701 1.4375 9.125 C1.35371094 10.03507813 1.26992188 10.94515625 1.18359375 11.8828125 C1.12300781 12.58148438 1.06242187 13.28015625 1 14 C-0.32 14.33 -1.64 14.66 -3 15 C-2.7834375 14.08476562 -2.566875 13.16953125 -2.34375 12.2265625 C-2.0653125 11.03804687 -1.786875 9.84953125 -1.5 8.625 C-1.2215625 7.44164062 -0.943125 6.25828125 -0.65625 5.0390625 C0.07035776 2.19236158 0.07035776 2.19236158 0 0 Z " fill="#F999B6" transform="translate(286,164)"/>
<path d="M0 0 C0.99 0.33 1.98 0.66 3 1 C2.979375 1.721875 2.95875 2.44375 2.9375 3.1875 C2.99820559 5.91925138 3.39258535 8.34256091 4 11 C1.5 8.6875 1.5 8.6875 -1 6 C-1 3 -1 3 0 0 Z " fill="#FA8FAF" transform="translate(211,234)"/>
<path d="M0 0 C1.32 1.65 2.64 3.3 4 5 C4.99 4.01 5.98 3.02 7 2 C7.33 3.65 7.66 5.3 8 7 C7.34 7 6.68 7 6 7 C5.67 8.32 5.34 9.64 5 11 C4.15841464 9.73461631 3.32700252 8.46246221 2.5 7.1875 C1.80390625 6.12595703 1.80390625 6.12595703 1.09375 5.04296875 C0 3 0 3 0 0 Z " fill="#FD9DBA" transform="translate(197,217)"/>
<path d="M0 0 C0.33 1.32 0.66 2.64 1 4 C-0.11375 4.86625 -0.11375 4.86625 -1.25 5.75 C-3.66087643 7.72253526 -5.84042701 9.76044282 -8 12 C-6.87548273 9.0280615 -5.77706209 6.66559313 -4 4 C-3.34 4 -2.68 4 -2 4 C-1.34 2.68 -0.68 1.36 0 0 Z " fill="#F8B3C8" transform="translate(177,330)"/>
<path d="M0 0 C1 3 1 3 0.00390625 5.26171875 C-0.47175781 6.06222656 -0.94742187 6.86273438 -1.4375 7.6875 C-2.14712891 8.89986328 -2.14712891 8.89986328 -2.87109375 10.13671875 C-3.24363281 10.75160156 -3.61617188 11.36648437 -4 12 C-4.66 11.34 -5.32 10.68 -6 10 C-5.67 9.01 -5.34 8.02 -5 7 C-4.34 7.33 -3.68 7.66 -3 8 C-3 6.02 -3 4.04 -3 2 C-2.01 2 -1.02 2 0 2 C0 1.34 0 0.68 0 0 Z " fill="#F790B1" transform="translate(305,211)"/>
<path d="M0 0 C3.25524265 3.02272532 5.61820737 6.25718301 8 10 C7.67 10.66 7.34 11.32 7 12 C4.5625 10.875 4.5625 10.875 2 9 C1.25 6 1.25 6 1 3 C0.67 2.01 0.34 1.02 0 0 Z " fill="#FBAAC3" transform="translate(239,212)"/>
<path d="M0 0 C0.66 0.33 1.32 0.66 2 1 C0.6062718 5.43458973 -1.60582235 7.87378374 -5 11 C-5 7.58678765 -4.33132534 6.60527115 -2.5 3.8125 C-2.0359375 3.09707031 -1.571875 2.38164062 -1.09375 1.64453125 C-0.7328125 1.10183594 -0.371875 0.55914062 0 0 Z " fill="#FAA7BF" transform="translate(220,268)"/>
<path d="M0 0 C1.29608947 0.93137592 2.58671632 1.8703566 3.875 2.8125 C4.59429687 3.33457031 5.31359375 3.85664063 6.0546875 4.39453125 C8 6 8 6 10 9 C5.06789169 7.76697292 2.78225429 6.28039122 0 2 C0 1.34 0 0.68 0 0 Z " fill="#F25D8A" transform="translate(278,125)"/>
<path d="M0 0 C3.26460973 1.80412643 4.88929795 2.83394693 7 6 C6.625 8.6875 6.625 8.6875 6 11 C5.7525 10.443125 5.505 9.88625 5.25 9.3125 C4.00800235 6.84535202 4.00800235 6.84535202 1.875 4.375 C0 2 0 2 0 0 Z " fill="#FBA3BE" transform="translate(220,252)"/>
<path d="M0 0 C0.99 0.66 1.98 1.32 3 2 C1.70700306 4.88437779 0.34058637 6.87219421 -2 9 C-1.979375 8.21625 -1.95875 7.4325 -1.9375 6.625 C-1.81315937 4.01885039 -1.81315937 4.01885039 -3 2 C-2.01 1.34 -1.02 0.68 0 0 Z " fill="#F976A6" transform="translate(280,246)"/>
<path d="M0 0 C0.33 0.66 0.66 1.32 1 2 C1.99 2 2.98 2 4 2 C6 5 6 5 5.625 7.1875 C5.41875 7.785625 5.2125 8.38375 5 9 C2.1997768 7.5998884 1.43223902 5.73427449 0 3 C0 2.01 0 1.02 0 0 Z " fill="#F583AB" transform="translate(181,372)"/>
<path d="M0 0 C0.33 0.99 0.66 1.98 1 3 C0.01 4.485 0.01 4.485 -1 6 C-1.66 6 -2.32 6 -3 6 C-3.33 6.99 -3.66 7.98 -4 9 C-4.33 8.01 -4.66 7.02 -5 6 C-5.66 5.67 -6.32 5.34 -7 5 C-6.030625 4.54625 -5.06125 4.0925 -4.0625 3.625 C-0.92920418 2.34213779 -0.92920418 2.34213779 0 0 Z " fill="#F99ABE" transform="translate(242,304)"/>
<path d="M0 0 C0.66 0.66 1.32 1.32 2 2 C1.8125 4.5 1.8125 4.5 1 7 C0.01 7.66 -0.98 8.32 -2 9 C-2.33 8.01 -2.66 7.02 -3 6 C-2.01 6 -1.02 6 0 6 C-0.66 5.67 -1.32 5.34 -2 5 C-2 4.01 -2 3.02 -2 2 C-1.34 2 -0.68 2 0 2 C0 1.34 0 0.68 0 0 Z " fill="#F3417C" transform="translate(287,234)"/>
<path d="M0 0 C0.33 0.66 0.66 1.32 1 2 C-1.16798732 7.4770206 -1.16798732 7.4770206 -4.1875 9.375 C-4.785625 9.58125 -5.38375 9.7875 -6 10 C-4.6302836 6.00499382 -2.74277578 3.19990508 0 0 Z " fill="#F9B3C9" transform="translate(263,208)"/>
<path d="M0 0 C2.74277578 3.19990508 4.6302836 6.00499382 6 10 C5.01 10 4.02 10 3 10 C0.96564469 6.27034861 0 4.33094958 0 0 Z " fill="#F9AAC1" transform="translate(218,181)"/>
<path d="M0 0 C7.38461538 0.49230769 7.38461538 0.49230769 10.5 3.0625 C10.995 3.701875 11.49 4.34125 12 5 C8.76344816 5 7.21247361 4.3449153 4.3125 3 C3.50425781 2.62875 2.69601562 2.2575 1.86328125 1.875 C1.24839844 1.58625 0.63351562 1.2975 0 1 C0 0.67 0 0.34 0 0 Z " fill="#E45489" transform="translate(271,153)"/>
<path d="M0 0 C-3.14573677 2.09715785 -5.01456251 2.52004559 -8.6875 3.125 C-10.17830078 3.37636719 -10.17830078 3.37636719 -11.69921875 3.6328125 C-12.45847656 3.75398437 -13.21773437 3.87515625 -14 4 C-14.33 3.34 -14.66 2.68 -15 2 C-13.43883181 1.66048381 -11.87598662 1.32867456 -10.3125 1 C-9.44238281 0.814375 -8.57226562 0.62875 -7.67578125 0.4375 C-5.06287036 0.01027953 -2.64186962 -0.07616201 0 0 Z " fill="#F08FB4" transform="translate(234,153)"/>
<path d="M0 0 C1.8125 0.1875 1.8125 0.1875 4 1 C5.75 3.5625 5.75 3.5625 7 6 C5.35 6 3.7 6 2 6 C1.34 4.02 0.68 2.04 0 0 Z " fill="#F7789C" transform="translate(289,135)"/>
<path d="M0 0 C0.33 0.66 0.66 1.32 1 2 C-0.25 5.5625 -0.25 5.5625 -2 9 C-2.99 9.33 -3.98 9.66 -5 10 C-3.66511872 6.40608886 -2.03977277 3.24509304 0 0 Z " fill="#F99DB4" transform="translate(282,180)"/>
<path d="M0 0 C1.65 1.65 3.3 3.3 5 5 C4.67 5.66 4.34 6.32 4 7 C3.01 7.33 2.02 7.66 1 8 C0.02391783 5.07175348 -0.08226668 3.04386724 0 0 Z " fill="#FB97B4" transform="translate(313,317)"/>
<path d="M0 0 C3.16717283 1.58358642 4.73268318 2.45263699 6.3125 5.6875 C6.539375 6.450625 6.76625 7.21375 7 8 C6.01 8 5.02 8 4 8 C0 2.74285714 0 2.74285714 0 0 Z " fill="#F495B2" transform="translate(277,268)"/>
<path d="M0 0 C0.99 0.33 1.98 0.66 3 1 C2.74438677 3.3431213 2.40729228 5.67843403 2 8 C1.01 8.495 1.01 8.495 0 9 C0.33 7.35 0.66 5.7 1 4 C0.01 3.67 -0.98 3.34 -2 3 C-1.34 2.67 -0.68 2.34 0 2 C0 1.34 0 0.68 0 0 Z " fill="#FA5D92" transform="translate(276,249)"/>
<path d="M0 0 C0.99 0.33 1.98 0.66 3 1 C3.66 0.67 4.32 0.34 5 0 C3.75023244 3.65316671 3.32901247 4.78065836 0 7 C0 4.69 0 2.38 0 0 Z " fill="#FB94BA" transform="translate(283,241)"/>
<path d="M0 0 C1.32 0.33 2.64 0.66 4 1 C4.33 2.98 4.66 4.96 5 7 C3.29115995 5.37660195 1.62553283 3.70680947 0 2 C0 1.34 0 0.68 0 0 Z " fill="#F7A6BF" transform="translate(265,316)"/>
<path d="M0 0 C2.475 0.495 2.475 0.495 5 1 C5.33 2.65 5.66 4.3 6 6 C5.01 6 4.02 6 3 6 C0 2.66666667 0 2.66666667 0 0 Z " fill="#FB90B1" transform="translate(215,245)"/>
<path d="M0 0 C0 3 0 3 -2 6 C-4.625 6.6875 -4.625 6.6875 -7 7 C-6.34 6.01 -5.68 5.02 -5 4 C-4.34 4 -3.68 4 -3 4 C-3 3.34 -3 2.68 -3 2 C-2.01 1.34 -1.02 0.68 0 0 Z " fill="#F65D8B" transform="translate(220,126)"/>
<path d="M0 0 C0.625 1.875 0.625 1.875 1 4 C0.34 4.66 -0.32 5.32 -1 6 C-1.33 6.99 -1.66 7.98 -2 9 C-2.66 9 -3.32 9 -4 9 C-3.46930939 5.17902761 -2.50298434 2.93828597 0 0 Z " fill="#F780A5" transform="translate(198,150)"/>
</svg>
